# xmcd
#
# Track frame offsets:
#	150
#	12982
#	25804
#	37022
#	49111
#	62043
#	83862
#	100248
#	115429
#	132127
#	147545
#	160485
#
# Disc length: 2320 seconds
#
# Revision: 0
# Processed by: cddbd v1.5.1PL2 Copyright (c) Steve Scherf et al.
# Submitted via: dBpowerAMP V4.0
#
DISCID=a7090e0c
DTITLE=Sue Malcolm - Highrise Lonesome
DYEAR=2004
DGENRE=Bluegrass
TTITLE0=Blue Night
TTITLE1=Let's Be Sweethearts Again
TTITLE2=Right or Wrong
TTITLE3=Red Clay Halo
TTITLE4=High Rise Lonesome
TTITLE5=You Don't Know Me
TTITLE6=You're There
TTITLE7=Amper Eyes
TTITLE8=Pretending I Don't Care
TTITLE9=I've Got A Right To Cry
TTITLE10=River of Jordan
TTITLE11=Blueridge Mountain Blues
EXTD=
EXTT0=
EXTT1=
EXTT2=
EXTT3=
EXTT4=
EXTT5=
EXTT6=
EXTT7=
EXTT8=
EXTT9=
EXTT10=
EXTT11=
PLAYORDER=
